<?xml version="1.0" encoding="UTF-8"?>
<svg version="1.1" xmlns="http://www.w3.org/2000/svg" width="162" height="162">
<path d="M0 0 C5.95722991 5.38987468 8.1367998 10.47865042 8.58203125 18.46875 C8.59621094 19.0978125 8.61039062 19.726875 8.625 20.375 C9.3984375 20.03726562 10.171875 19.69953125 10.96875 19.3515625 C12.0103125 18.90554687 13.051875 18.45953125 14.125 18 C15.1459375 17.55914063 16.166875 17.11828125 17.21875 16.6640625 C28.55991205 12.37210897 42.3650142 11.17597188 54.17578125 14.3203125 C57.71152671 15.98604147 60.09750668 17.83243544 62.8125 20.625 C64.07223577 24.88872106 64.00222378 28.13130569 62.625 32.375 C58.4224889 39.91053715 52.3726441 45.84379635 46.234375 51.8125 C42.8164946 55.16898135 39.66972496 58.68001971 36.625 62.375 C36.09132812 63.00792969 35.55765625 63.64085938 35.0078125 64.29296875 C30.31084677 70.14664992 27.21179087 76.34081279 26.125 83.8125 C26.95665347 89.73803098 29.26495159 95.11429817 31.55859375 100.61328125 C34.22799315 107.19098789 34.5163451 112.73178672 31.78125 119.265625 C25.85591188 130.07536347 16.11515316 135.09174533 4.75 138.6875 C-12.87512519 143.81913964 -35.41808581 144.25433129 -52.125 136.01953125 C-57.7671038 132.64692754 -60.99109216 128.85180254 -62.95703125 122.4921875 C-64.37116331 115.32901387 -63.4603916 108.28285968 -61.375 101.375 C-62.303125 101.33375 -63.23125 101.2925 -64.1875 101.25 C-73.47590008 99.87742266 -81.65911519 93.55025966 -87.375 86.375 C-92.478268 78.40780846 -94.38575648 69.7624008 -93.375 60.375 C-91.51766334 52.61850884 -88.18583702 45.17808063 -81.80859375 40.13671875 C-76.58697896 37.11121936 -70.56521816 36.22224075 -64.73950195 34.93994141 C-51.24568208 31.86757535 -42.88323869 24.95613498 -34.875 13.9375 C-24.65685771 -0.04718379 -24.65685771 -0.04718379 -18.125 -3.1875 C-11.6432596 -3.94370305 -5.86934306 -2.82597999 0 0 Z " fill="#B69354" transform="translate(96.375,8.625)"/>
<path d="M0 0 C6.44476955 5.65882204 7.1794607 10.7193646 7.97265625 19.0078125 C7.5625 22.25 7.5625 22.25 5.46875 24.36328125 C4.5096875 24.98589844 3.550625 25.60851562 2.5625 26.25 C-6.49024775 33.22321518 -15.16730751 40.358858 -23.4375 48.25 C-24.7678125 49.50103516 -24.7678125 49.50103516 -26.125 50.77734375 C-32.01405359 56.45992137 -36.86862069 62.46851876 -41.4375 69.25 C-42.31341797 70.52617187 -42.31341797 70.52617187 -43.20703125 71.828125 C-48.35999092 79.59827637 -52.37743583 87.87786767 -56.4375 96.25 C-57.10163543 97.58459595 -57.76675068 98.91871582 -58.4375 100.25 C-63.39980407 100.60445029 -66.09197219 99.55579027 -70.4375 97.25 C-72.108125 96.87875 -72.108125 96.87875 -73.8125 96.5 C-81.00394762 94.02019048 -86.87393261 87.93168886 -90.4375 81.25 C-94.18075418 72.45033393 -94.81877876 63.66938628 -91.8125 54.5625 C-88.91706472 47.47577029 -85.31879935 41.2916764 -78.09765625 38.10546875 C-73.73948454 36.70394216 -69.26987464 35.79836559 -64.80200195 34.81494141 C-51.30818208 31.74257535 -42.94573869 24.83113498 -34.9375 13.8125 C-24.71935771 -0.17218379 -24.71935771 -0.17218379 -18.1875 -3.3125 C-11.65902036 -4.07415596 -5.85239586 -2.97940153 0 0 Z " fill="#0B282B" transform="translate(96.4375,8.75)"/>
<path d="M0 0 C1.94158017 3.51624755 2.18311068 5.9715651 2 10 C3.32 9.67 4.64 9.34 6 9 C6 9.66 6 10.32 6 11 C5.52240234 11.41491699 5.04480469 11.82983398 4.55273438 12.25732422 C2.36882328 14.7083867 2.43493006 16.63796866 2.15625 19.8828125 C2.04410156 21.05070312 1.93195313 22.21859375 1.81640625 23.421875 C1.71199219 24.64390625 1.60757813 25.8659375 1.5 27.125 C0.79967108 35.16581353 -0.01571885 42.47248486 -3 50 C-3.45385974 51.26926876 -3.90700818 52.53879214 -4.359375 53.80859375 C-8.74529468 65.25387292 -13.60516248 73.76287617 -23.66796875 81.2109375 C-26.04446731 82.93467529 -26.04446731 82.93467529 -27.96875 85.09375 C-30.32156734 87.30177858 -32.26704057 88.09979583 -35.3125 89.125 C-36.21613281 89.43695313 -37.11976562 89.74890625 -38.05078125 90.0703125 C-39.02402344 90.37710938 -39.99726562 90.68390625 -41 91 C-42.09054688 91.35449219 -43.18109375 91.70898438 -44.3046875 92.07421875 C-48.51713328 93.12955665 -52.49000586 93.48130991 -56.8125 93.6875 C-57.57498047 93.73455078 -58.33746094 93.78160156 -59.12304688 93.83007812 C-64.73453711 94.13273144 -64.73453711 94.13273144 -67 93 C-67.33 99.93 -67.66 106.86 -68 114 C-71.70943353 106.58113294 -70.33335949 98.72925332 -68 91 C-69.03125 90.896875 -70.0625 90.79375 -71.125 90.6875 C-74.95083945 90.00872203 -77.63370025 88.88841205 -81 87 C-79.375 86.3125 -79.375 86.3125 -77 86 C-74.98276656 86.96476382 -72.98387708 87.96838392 -71 89 C-67.7633037 89.70758326 -67.7633037 89.70758326 -65 90 C-64.83781982 89.45327637 -64.67563965 88.90655273 -64.50854492 88.34326172 C-62.69451371 82.54158019 -60.31351317 77.40103962 -57.3125 72.125 C-56.86898193 71.3397998 -56.42546387 70.55459961 -55.96850586 69.74560547 C-49.59550725 58.6297771 -41.82616677 49.22041037 -33 40 C-32.1234375 39.07058594 -31.246875 38.14117187 -30.34375 37.18359375 C-25.43301991 32.10676544 -20.36741773 27.53765658 -14.8125 23.1875 C-14.21832275 22.72005371 -13.62414551 22.25260742 -13.01196289 21.77099609 C-10.50706668 19.82899398 -8.05333305 18.03201545 -5.33203125 16.3984375 C-3.10233004 15.04877765 -1.54976834 14.09923167 0 12 C0.64317529 7.91425536 0.47730456 4.09686416 0 0 Z " fill="#DF92B9" transform="translate(103,19)"/>
<path d="M0 0 C0.9605127 0.00257812 1.92102539 0.00515625 2.91064453 0.0078125 C9.76327109 0.15468072 9.76327109 0.15468072 13.1875 2.4375 C12.59324219 2.42178955 11.99898437 2.4060791 11.38671875 2.38989258 C8.65374546 2.32693431 5.92092545 2.28831905 3.1875 2.25 C2.25292969 2.22486328 1.31835938 2.19972656 0.35546875 2.17382812 C-7.10443254 2.09557741 -12.49400764 3.22517176 -18.8125 7.4375 C-22 7.5625 -22 7.5625 -24.8125 7.4375 C-25.1425 8.4275 -25.4725 9.4175 -25.8125 10.4375 C-26.8025 10.9325 -26.8025 10.9325 -27.8125 11.4375 C-29.09733596 15.29200788 -29.23461748 19.00274139 -29.53125 23.0390625 C-29.8125 25.4375 -29.8125 25.4375 -30.8125 26.4375 C-31.00019498 28.07908622 -31.13671629 29.72660638 -31.25 31.375 C-31.6934763 36.8397725 -32.61805657 42.09149591 -33.8125 47.4375 C-35.2975 47.9325 -35.2975 47.9325 -36.8125 48.4375 C-37.3075 50.9125 -37.3075 50.9125 -37.8125 53.4375 C-38.5 51.875 -38.5 51.875 -38.8125 49.4375 C-38.11199936 47.76964133 -37.40311971 46.10447535 -36.6394043 44.46459961 C-33.36829449 36.44569653 -33.23916191 27.20857836 -32.6015625 18.67773438 C-32.52679688 17.78505859 -32.45203125 16.89238281 -32.375 15.97265625 C-32.31441406 15.172229 -32.25382812 14.37180176 -32.19140625 13.54711914 C-31.8125 11.4375 -31.8125 11.4375 -29.8125 8.4375 C-29.1525 8.4375 -28.4925 8.4375 -27.8125 8.4375 C-27.8125 7.4475 -27.8125 6.4575 -27.8125 5.4375 C-18.50410713 1.70347421 -10.07190937 -0.03980336 0 0 Z " fill="#B8915F" transform="translate(136.8125,21.5625)"/>
<path d="M0 0 C1.94158017 3.51624755 2.18311068 5.9715651 2 10 C3.32 9.67 4.64 9.34 6 9 C6 9.66 6 10.32 6 11 C5.52312744 11.4112915 5.04625488 11.82258301 4.55493164 12.24633789 C2.34443677 14.73934851 2.41470711 16.7675456 2.12109375 20.05859375 C2.00443359 21.24904297 1.88777344 22.43949219 1.76757812 23.66601562 C1.65865234 24.91060547 1.54972656 26.15519531 1.4375 27.4375 C1.21407439 29.89518171 0.9838891 32.35226076 0.74609375 34.80859375 C0.64997803 35.89970459 0.5538623 36.99081543 0.45483398 38.11499023 C0.02642604 40.83237977 -0.61129804 42.65040874 -2 45 C-2.12542871 37.47427732 -2.12542871 37.47427732 -1.5 35.109375 C-0.69109499 31.696807 -0.89745799 28.23673496 -0.9375 24.75 C-0.94201172 24.00492188 -0.94652344 23.25984375 -0.95117188 22.4921875 C-0.96290754 20.6614236 -0.9808415 18.83070127 -1 17 C-1.66 16.67 -2.32 16.34 -3 16 C-3.33 16.99 -3.66 17.98 -4 19 C-4.99 19 -5.98 19 -7 19 C-7.33 19.99 -7.66 20.98 -8 22 C-9.65 22.33 -11.3 22.66 -13 23 C-8.66088444 18.38968971 -8.66088444 18.38968971 -5.88671875 16.75390625 C-3.49307724 15.32112261 -1.77588142 14.16476057 0 12 C0.68484486 7.91706997 0.4775847 4.09926866 0 0 Z " fill="#C1999E" transform="translate(103,19)"/>
<path d="M0 0 C3.79414881 0.51738393 6.60845914 1.30422957 10 3 C15.98665971 4.79071168 21.27457041 5.25680877 27.5 5.125 C28.32242188 5.11597656 29.14484375 5.10695313 29.9921875 5.09765625 C31.99492083 5.07436865 33.99750154 5.03850959 36 5 C32.1952061 7.53652927 28.86280401 7.48551517 24.4375 7.6875 C23.65697266 7.73455078 22.87644531 7.78160156 22.07226562 7.83007812 C16.27083333 8.13541667 16.27083333 8.13541667 14 7 C13.67 13.93 13.34 20.86 13 28 C9.29056647 20.58113294 10.66664051 12.72925332 13 5 C11.96875 4.896875 10.9375 4.79375 9.875 4.6875 C6.04916055 4.00872203 3.36629975 2.88841205 0 1 C0 0.67 0 0.34 0 0 Z " fill="#CAB8A4" transform="translate(22,105)"/>
<path d="M0 0 C0.9684082 -0.0014502 1.93681641 -0.00290039 2.93457031 -0.00439453 C9.90782529 0.10521686 9.90782529 0.10521686 13.3125 2.375 C12.71824219 2.35928955 12.12398437 2.3435791 11.51171875 2.32739258 C8.77874546 2.26443431 6.04592545 2.22581905 3.3125 2.1875 C2.37792969 2.16236328 1.44335938 2.13722656 0.48046875 2.11132812 C-6.97943254 2.03307741 -12.36900764 3.16267176 -18.6875 7.375 C-20.94921875 7.3515625 -20.94921875 7.3515625 -23.375 7 C-24.18324219 6.88914062 -24.99148437 6.77828125 -25.82421875 6.6640625 C-26.74654297 6.52097656 -26.74654297 6.52097656 -27.6875 6.375 C-21.01109001 -0.30140999 -8.8279984 0.0014439 0 0 Z " fill="#CEBB94" transform="translate(136.6875,21.625)"/>
<path d="M0 0 C1.98 0 3.96 0 6 0 C4.27377897 3.45244206 0.45884983 3.90384884 -3.0390625 5.11328125 C-10.37561164 7.31037446 -23.08210863 9.45894569 -30 6 C-29.67 5.01 -29.34 4.02 -29 3 C-28.67 3.33 -28.34 3.66 -28 4 C-20.53851196 4.44623642 -13.35384773 4.22347111 -6.0859375 2.4375 C-4 2 -4 2 0 2 C0 1.34 0 0.68 0 0 Z " fill="#D596A2" transform="translate(68,104)"/>
<path d="M0 0 C2.93634523 2.93634523 2.93492048 5.1539663 3.25 9.25 C2.65444246 18.18336317 -1.50220947 23.96633737 -8 30 C-10.6328125 31.82421875 -10.6328125 31.82421875 -13 33 C-13.66 32.67 -14.32 32.34 -15 32 C-14.37351562 31.51789063 -13.74703125 31.03578125 -13.1015625 30.5390625 C-11.87566406 29.59160156 -11.87566406 29.59160156 -10.625 28.625 C-9.40683594 27.68527344 -9.40683594 27.68527344 -8.1640625 26.7265625 C-4.85388314 24.21002095 -4.85388314 24.21002095 -3.5 20.4375 C-3.335 19.633125 -3.17 18.82875 -3 18 C-2.34 17.67 -1.68 17.34 -1 17 C0.32421988 13.5020607 0.09945529 9.94552923 0.0625 6.25 C0.05347656 5.07953125 0.04445313 3.9090625 0.03515625 2.703125 C0.01775391 1.36507812 0.01775391 1.36507812 0 0 Z " fill="#DBCEAE" transform="translate(127,109)"/>
<path d="M0 0 C4.58151466 1.52717155 7.79607006 3.59214011 10 8 C9.984375 10.05859375 9.984375 10.05859375 9.75 12.4375 C9.68296875 13.21996094 9.6159375 14.00242187 9.546875 14.80859375 C8.91025468 17.35962232 7.99028875 18.33607581 6 20 C6.05220703 19.1646875 6.05220703 19.1646875 6.10546875 18.3125 C6.31274273 12.46934778 5.55007584 8.28904618 3 3 C2.01 2.67 1.02 2.34 0 2 C0 1.34 0 0.68 0 0 Z " fill="#CCB994" transform="translate(150,24)"/>
<path d="M0 0 C0.78117187 0.01804688 1.56234375 0.03609375 2.3671875 0.0546875 C2.94726562 0.07789063 3.52734375 0.10109375 4.125 0.125 C-3.74239008 5.36992672 -14.0994928 4.40304648 -23.1875 4.3125 C-24.43595703 4.31185547 -25.68441406 4.31121094 -26.97070312 4.31054688 C-36.97597267 4.26226407 -36.97597267 4.26226407 -41.875 3.125 C-41.875 2.795 -41.875 2.465 -41.875 2.125 C-40.5135083 2.14071045 -40.5135083 2.14071045 -39.12451172 2.15673828 C-35.73630196 2.19095387 -32.34827756 2.2159637 -28.95996094 2.23486328 C-27.49736624 2.24488105 -26.03479137 2.25849912 -24.57226562 2.27587891 C-22.46218961 2.30031439 -20.35237988 2.31152537 -18.2421875 2.3203125 C-16.34122314 2.33602295 -16.34122314 2.33602295 -14.40185547 2.35205078 C-9.33339558 2.02575508 -5.11117255 -0.15488402 0 0 Z " fill="#E6D7BB" transform="translate(98.875,145.875)"/>
<path d="M0 0 C0 3.69418201 -1.28179295 5.77836178 -3 9 C-3.66 9 -4.32 9 -5 9 C-5.2475 9.721875 -5.495 10.44375 -5.75 11.1875 C-7.13855708 14.31175343 -8.65354583 16.51551912 -11 19 C-13.25 19.8125 -13.25 19.8125 -15 20 C-13.72271509 17.28614002 -12.3291531 14.96735062 -10.46875 12.6171875 C-9.98792969 12.00746094 -9.50710937 11.39773437 -9.01171875 10.76953125 C-8.51285156 10.14433594 -8.01398437 9.51914062 -7.5 8.875 C-7.00113281 8.24207031 -6.50226563 7.60914063 -5.98828125 6.95703125 C-4.064186 4.52740963 -2.1938523 2.1938523 0 0 Z " fill="#728083" transform="translate(71,11)"/>
<path d="M0 0 C0.33 0 0.66 0 1 0 C1.19865739 8.89543642 1.33447255 17.32910197 -1 26 C-1.99 26.33 -2.98 26.66 -4 27 C-4.33 28.65 -4.66 30.3 -5 32 C-5.6875 30.4375 -5.6875 30.4375 -6 28 C-5.30117929 26.33614117 -4.59424046 24.67485396 -3.83203125 23.0390625 C-0.89311416 15.83664598 -0.55440372 7.67411464 0 0 Z " fill="#C38F72" transform="translate(104,43)"/>
<path d="M0 0 C1.37562854 1.28965176 2.70766393 2.62689293 4 4 C4 4.66 4 5.32 4 6 C4.7425 6.0825 5.485 6.165 6.25 6.25 C9 7 9 7 10.75 8.875 C14.00592426 11.95003958 17.75234594 12.80194373 22 14 C17.49372232 15.61310171 14.6188842 13.98082968 10.40625 12.171875 C5.43400653 9.75032786 2.47295711 6.94591422 0 2 C0 1.34 0 0.68 0 0 Z " fill="#E3D3BC" transform="translate(35,133)"/>
<path d="M0 0 C0 3.38462641 -0.60500923 4.21712433 -2.375 7 C-5.35721395 12.12805628 -6.26958041 17.1675451 -7 23 C-7.33 23 -7.66 23 -8 23 C-8.10477512 17.21408489 -7.99250545 11.70690634 -7 6 C-6.38125 5.9175 -5.7625 5.835 -5.125 5.75 C-2.82618538 5.19392091 -2.82618538 5.19392091 -1.8125 3 C-1.544375 2.34 -1.27625 1.68 -1 1 C-0.67 0.67 -0.34 0.34 0 0 Z " fill="#D4C2A0" transform="translate(129,73)"/>
<path d="M0 0 C0.33 0.66 0.66 1.32 1 2 C-0.25 5.5625 -0.25 5.5625 -2 9 C-2.99 9.33 -3.98 9.66 -5 10 C-5.103125 10.763125 -5.20625 11.52625 -5.3125 12.3125 C-6.04364039 15.17059424 -6.76951913 16.15742885 -9 18 C-9.33 17.34 -9.66 16.68 -10 16 C-8.80219162 13.58663793 -7.55896094 11.31129458 -6.1875 9 C-5.81818359 8.35804687 -5.44886719 7.71609375 -5.06835938 7.0546875 C-3.54642782 4.44253926 -2.14632879 2.14632879 0 0 Z " fill="#B687A2" transform="translate(53,80)"/>
<path d="M0 0 C1.32 0.33 2.64 0.66 4 1 C0.91187685 4.35281942 -1.52476282 6.82230601 -6 8 C-6.99 7.67 -7.98 7.34 -9 7 C-8.67 6.34 -8.34 5.68 -8 5 C-7.34 5 -6.68 5 -6 5 C-5.67 4.01 -5.34 3.02 -5 2 C-3.35 2 -1.7 2 0 2 C0 1.34 0 0.68 0 0 Z " fill="#C5AE85" transform="translate(112,138)"/>
<path d="M0 0 C0 3 0 3 -2.625 5.91796875 C-3.74249406 7.01550756 -4.86785643 8.10507895 -6 9.1875 C-6.57234375 9.74630859 -7.1446875 10.30511719 -7.734375 10.88085938 C-9.14962788 12.26073093 -10.57397155 13.63126734 -12 15 C-12.625 13.125 -12.625 13.125 -13 11 C-12.34 10.34 -11.68 9.68 -11 9 C-10.34 9.33 -9.68 9.66 -9 10 C-8.938125 9.401875 -8.87625 8.80375 -8.8125 8.1875 C-7.67020358 5.11208657 -5.82171939 4.54522728 -3 3 C-1.24850835 1.41754725 -1.24850835 1.41754725 0 0 Z " fill="#D7C3A0" transform="translate(152,48)"/>
<path d="M0 0 C0 0.99 0 1.98 0 3 C-1.609375 4.24609375 -1.609375 4.24609375 -3.75 5.4375 C-6.96251886 7.31716529 -9.50563505 9.19383943 -12 12 C-12.66 11.67 -13.32 11.34 -14 11 C-3.27808989 0 -3.27808989 0 0 0 Z " fill="#B786A3" transform="translate(88,44)"/>
<path d="M0 0 C0.66 0.99 1.32 1.98 2 3 C-2.625 8.875 -2.625 8.875 -6 10 C-4.6302836 6.00499382 -2.74277578 3.19990508 0 0 Z " fill="#B5819E" transform="translate(60,70)"/>
<path d="M0 0 C0.33 0 0.66 0 1 0 C1 4.95 1 9.9 1 15 C1.66 15 2.32 15 3 15 C3.33 16.98 3.66 18.96 4 21 C1.68683344 19.30610638 0.16813253 17.97994403 -0.33007812 15.07617188 C-0.3934207 12.78970912 -0.34853117 10.53516518 -0.25 8.25 C-0.23195312 7.45722656 -0.21390625 6.66445312 -0.1953125 5.84765625 C-0.14833082 3.89791652 -0.07659044 1.94880122 0 0 Z " fill="#B49A69" transform="translate(35,116)"/>
<path d="M0 0 C1.98 0 3.96 0 6 0 C4.54987453 2.90025094 2.68687091 3.08706855 -0.3125 4.1875 C-1.27800781 4.55230469 -2.24351563 4.91710937 -3.23828125 5.29296875 C-6.0347797 6.008904 -7.33859538 5.99249531 -10 5 C-8.02 4.67 -6.04 4.34 -4 4 C-4 3.34 -4 2.68 -4 2 C-2.68 2 -1.36 2 0 2 C0 1.34 0 0.68 0 0 Z " fill="#CC9388" transform="translate(68,104)"/>
<path d="M0 0 C0.66 0.66 1.32 1.32 2 2 C0.02 4.31 -1.96 6.62 -4 9 C-4.99 8.67 -5.98 8.34 -7 8 C-4.69 5.36 -2.38 2.72 0 0 Z " fill="#B886A3" transform="translate(68,61)"/>
<path d="M0 0 C1.50560497 2.85410334 2.63216796 5.68124642 3.625 8.75 C3.88539062 9.54921875 4.14578125 10.3484375 4.4140625 11.171875 C4.60742188 11.77515625 4.80078125 12.3784375 5 13 C3 13 3 13 1.375 11.5625 C-0.65451195 7.78022773 -0.24272259 4.20719164 0 0 Z " fill="#D0BE98" transform="translate(122,96)"/>
<path d="M0 0 C0 0.99 0 1.98 0 3 C-2.1875 5.04296875 -2.1875 5.04296875 -5 7.1875 C-5.928125 7.90292969 -6.85625 8.61835937 -7.8125 9.35546875 C-8.8953125 10.16951172 -8.8953125 10.16951172 -10 11 C-10.66 10.67 -11.32 10.34 -12 10 C-11.0409375 9.5978125 -11.0409375 9.5978125 -10.0625 9.1875 C-7.66868314 8.11332248 -7.66868314 8.11332248 -7 5 C-5.37109375 3.61328125 -5.37109375 3.61328125 -3.4375 2.3125 C-2.79683594 1.87550781 -2.15617187 1.43851562 -1.49609375 0.98828125 C-1.00238281 0.66214844 -0.50867188 0.33601563 0 0 Z " fill="#D4959D" transform="translate(87,91)"/>
<path d="M0 0 C0.66 0 1.32 0 2 0 C0.55049545 3.7910119 -1.15172566 7.3874638 -3 11 C-3.33 11 -3.66 11 -4 11 C-4.25 5.375 -4.25 5.375 -2 2 C-1.34 2 -0.68 2 0 2 C0 1.34 0 0.68 0 0 Z " fill="#20262E" transform="translate(45,89)"/>
<path d="M0 0 C0 3.7794561 -1.04679411 5.79116175 -3 9 C-5.1875 9.875 -5.1875 9.875 -7 10 C-5.33248852 6.05860922 -2.77289351 3.2107188 0 0 Z " fill="#91A0A1" transform="translate(71,11)"/>
<path d="M0 0 C0.66 0.33 1.32 0.66 2 1 C-1.32307692 5.8 -1.32307692 5.8 -4.75 6.8125 C-5.4925 6.874375 -6.235 6.93625 -7 7 C-4.66666667 4.66666667 -2.33333333 2.33333333 0 0 Z " fill="#A87E98" transform="translate(97,35)"/>
</svg>
